<svg xmlns="http://www.w3.org/2000/svg" viewBox="0 0 128 128" width="128" height="128">
  <rect width="128" height="128" rx="25" fill="#2563eb"/>
  <path d="M20 32c0-4 3-7 7-6 14 2 26 6 37 13v63c-11-8-24-13-38-15-4-1-6-4-6-8V32z" fill="#fff"/>
  <path d="M108 32c0-4-3-7-7-6-14 2-26 6-37 13v63c11-8 24-13 38-15 4-1 6-4 6-8V32z" fill="#fff"/>
  <rect x="29" y="55" width="25" height="4" rx="2" fill="#06b6d4"/>
  <rect x="74" y="52" width="25" height="4" rx="2" fill="#2563eb"/>
  <rect x="74" y="64" width="25" height="4" rx="2" fill="#06b6d4"/>
</svg>
